:SAMPLES-PER-SECOND 30
:FULLY-SPECIFIED
:DEGREES
304
root  28.1735 38.1109 -0.781204 -160.351 75.4134 -157.804
RightUpLeg  17.1792 -9.94766 -1.02575
RightLeg  13.3321 -10.481 3.44466
RightFoot  -20.8148 0.412429 6.69441
RightToes  0.00048216 0.542163 -0.142577
Spine  10.0323 1.37533 18.338
Spine1  14.4311 6.38248 -10.9711
HEad  11.8703 15.4121 -12.2998
LeftShoulder1  7.45219 -11.5192 -43.1323
LeftArm  -16.2413 21.3116 -26.4098
LeftForeArm  31.9266 -44.5038 -8.79478
LeftHand  -0.25398 0.0180481 5.50724
RightShoulder  3.88151 7.6378 28.8519
RightArm  -20.9758 26.5347 7.92965
RightForeArm  -11.577 16.2739 6.12474
RightHand  -1.96679 5.74158 -20.6828
LeftUpLeg  -22.7968 6.11315 4.89278
LeftLeg  -9.23216 38.1024 -12.0923
LeftFoot  -7.43839 0.256756 -6.06844
LeftToes  1.06246e-005 4.65855e-005 -8.18505e-006
305
root  29.9575 37.6185 -1.20004 -161.337 74.8146 -158.861
RightUpLeg  19.9224 -12.5703 -2.80005
RightLeg  14.9005 -7.31138 3.2774
RightFoot  -21.6891 0.574896 7.92383
RightToes  0.00048216 0.542163 -0.142577
Spine  9.64503 1.58909 17.0587
Spine1  15.1706 6.87666 -11.3902
HEad  11.4291 15.6719 -11.986
LeftShoulder1  7.48299 -11.5868 -43.1161
LeftArm  -15.9997 22.6243 -25.8666
LeftForeArm  30.914 -41.1595 -7.77138
LeftHand  -0.25398 0.0180481 5.50724
RightShoulder  3.82436 7.57888 28.5153
RightArm  -20.794 27.21 8.91551
RightForeArm  -13.5769 20.2954 5.67473
RightHand  -1.9907 5.76201 -20.8893
LeftUpLeg  -23.0553 6.58838 4.33153
LeftLeg  -8.05015 42.6616 -12.7809
LeftFoot  -7.58372 0.156628 -3.57198
LeftToes  1.06246e-005 4.65855e-005 -8.18505e-006
306
root  31.8279 37.2248 -1.63256 -165.961 75.1025 -163.861
RightUpLeg  22.3234 -17.4249 -7.34301
RightLeg  17.6493 0.0616021 2.76337
RightFoot  -21.755 0.933593 11.8401
RightToes  0.00048216 0.542163 -0.142577
Spine  9.39319 2.23106 13.6418
Spine1  16.1318 7.6031 -11.4308
HEad  10.9138 15.9661 -11.6167
LeftShoulder1  7.44528 -11.5357 -43.0396
LeftArm  -15.2634 23.5007 -25.0642
LeftForeArm  29.347 -36.8654 -6.62775
LeftHand  -0.25398 0.0180481 5.50724
RightShoulder  3.98172 7.81154 29.2061
RightArm  -20.9334 26.7655 10.2344
RightForeArm  -14.5342 25.2769 6.06348
RightHand  -2.05902 5.78311 -21.5319
LeftUpLeg  -24.2122 10.2747 1.87391
LeftLeg  -1.06834 42.1831 -10.1227
LeftFoot  -5.34223 -0.0886417 2.14433
LeftToes  1.06246e-005 4.65855e-005 -8.18505e-006
307
root  33.7019 36.9345 -2.06576 -174.06 74.6972 -172.236
RightUpLeg  22.7949 -20.6725 -11.9699
RightLeg  23.8686 5.05402 1.84512
RightFoot  -18.554 0.952601 17.592
RightToes  0.00048216 0.542163 -0.142577
Spine  10.0368 2.70642 8.75292
Spine1  16.0917 7.60069 -10.998
HEad  10.5455 16.2984 -11.0597
LeftShoulder1  7.33571 -11.3757 -42.8504
LeftArm  -13.872 23.412 -24.0505
LeftForeArm  26.7967 -31.1646 -5.31379
LeftHand  -0.25398 0.0180481 5.50724
RightShoulder  4.38931 8.40238 30.9091
RightArm  -20.7015 25.3883 11.9417
RightForeArm  -13.9394 30.4665 7.38039
RightHand  -2.27104 6.18512 -22.8727
LeftUpLeg  -29.1445 22.8361 -7.47307
LeftLeg  11.6192 28.5046 -0.755013
LeftFoot  -2.51801 -0.683792 8.97326
LeftToes  1.06246e-005 4.65855e-005 -8.18505e-006
308
root  35.4224 36.8411 -2.48314 178.11 71.8872 179.899
RightUpLeg  18.9661 -18.5275 -12.9169
RightLeg  34.9094 0.660359 0.153366
RightFoot  -8.28575 -0.511734 19.4312
RightToes  0.00048216 0.542163 -0.142577
Spine  12.5286 2.27113 4.12274
Spine1  14.629 6.44689 -10.4674
HEad  10.3232 16.2819 -10.5431
LeftShoulder1  7.3323 -11.4676 -42.5505
LeftArm  -12.4964 22.305 -23.1116
LeftForeArm  23.5146 -24.5983 -4.09255
LeftHand  -0.25398 0.0180481 5.50724
RightShoulder  4.88361 9.1238 32.7345
RightArm  -18.9617 23.1489 14.408
RightForeArm  -11.7463 35.1541 8.56081
RightHand  -2.42622 6.55493 -23.6742
LeftUpLeg  -34.0267 32.168 -18.032
LeftLeg  18.1422 13.7525 5.33103
LeftFoot  -0.660577 -1.35546 14.5821
LeftToes  1.06246e-005 4.65855e-005 -8.18505e-006
309
root  36.8579 36.7925 -2.86035 174.021 67.8285 176.004
RightUpLeg  11.8065 -17.9748 -12.9819
RightLeg  48.8976 -2.02847 -2.788
RightFoot  5.82309 -2.15381 14.6207
RightToes  0.00048216 0.542163 -0.142577
Spine  16.6672 1.39371 1.22396
Spine1  12.938 5.04389 -10.5349
HEad  9.87399 15.6233 -10.5468
LeftShoulder1  7.52952 -12.0206 -42.1138
LeftArm  -12.8469 20.453 -22.6938
LeftForeArm  21.5195 -18.7495 -3.54168
LeftHand  -0.25398 0.0180481 5.50724
RightShoulder  5.27545 9.71915 33.9516
RightArm  -16.7858 20.8595 17.1908
RightForeArm  -7.11208 38.5208 9.33623
RightHand  -2.11632 5.7069 -22.1939
LeftUpLeg  -32.4789 27.5177 -17.5718
LeftLeg  22.915 14.723 7.10737
LeftFoot  -1.55448 -1.40138 16.3408
LeftToes  1.06246e-005 4.65855e-005 -8.18505e-006
310
root  38.0367 36.7491 -3.16471 172.002 64.4058 174.034
RightUpLeg  2.72807 -16.9855 -12.1183
RightLeg  61.3457 -2.0702 -4.57615
RightFoot  13.6607 -1.93444 8.97604
RightToes  0.00048216 0.542163 -0.142577
Spine  20.9924 0.85972 -0.44478
Spine1  12.534 4.2861 -10.9801
HEad  8.72196 14.4102 -11.4146
LeftShoulder1  7.77885 -12.7547 -41.5029
LeftArm  -14.7953 17.9964 -23.072
LeftForeArm  21.7408 -15.2242 -3.54616
LeftHand  -0.25398 0.0180481 5.50724
RightShoulder  5.53772 10.1712 34.5412
RightArm  -14.3722 20.1236 19.503
RightForeArm  -2.17168 39.7667 9.45351
RightHand  -1.46775 3.71302 -18.8634
LeftUpLeg  -30.962 25.6848 -17.6955
LeftLeg  26.0603 13.6724 7.50004
LeftFoot  -3.77037 -1.02194 15.6677
LeftToes  1.06246e-005 4.65855e-005 -8.18505e-006
311
root  39.2234 36.9038 -3.44387 171.76 61.5093 173.493
RightUpLeg  -6.561 -16.0631 -10.7822
RightLeg  69.4732 -1.43602 -5.03604
RightFoot  12.991 -1.21382 6.02152
RightToes  0.00048216 0.542163 -0.142577
Spine  24.3076 0.621428 -1.40214
Spine1  13.2908 3.81879 -10.6736
HEad  6.91764 12.7911 -12.6851
LeftShoulder1  7.91907 -13.319 -40.7788
LeftArm  -15.4517 14.8963 -23.9449
LeftForeArm  22.2463 -14.5197 -3.54853
LeftHand  -0.25398 0.0180481 5.50724
RightShoulder  5.75561 10.6315 34.7595
RightArm  -11.5101 21.6509 21.1776
RightForeArm  0.226312 38.4493 8.89159
RightHand  -1.06877 2.2629 -16.4174
LeftUpLeg  -29.335 24.665 -17.3748
LeftLeg  27.5029 12.1684 7.13557
LeftFoot  -5.29699 -0.750937 14.7588
LeftToes  1.06246e-005 4.65855e-005 -8.18505e-006
312
root  40.4348 37.1835 -3.66271 172.539 58.0316 173.625
RightUpLeg  -14.962 -15.8929 -9.73467
RightLeg  72.1629 -1.12635 -4.92409
RightFoot  8.76717 -1.05854 6.34896
RightToes  0.00048216 0.542163 -0.142577
Spine  27.1483 0.384141 -2.18463
Spine1  14.3182 3.0871 -9.60634
HEad  5.05423 10.6789 -13.3426
LeftShoulder1  8.01532 -13.7691 -40.1476
LeftArm  -14.8504 11.2163 -24.4752
LeftForeArm  23.0946 -15.7883 -3.65304
LeftHand  -0.25398 0.0180481 5.50724
RightShoulder  5.96173 11.1514 34.7207
RightArm  -8.46414 24.3393 22.6152
RightForeArm  -0.0860754 35.1042 7.90917
RightHand  -1.0267 2.13669 -15.988
LeftUpLeg  -27.6526 22.3904 -16.5689
LeftLeg  28.0354 11.1497 6.71376
LeftFoot  -5.8431 -0.636237 13.9113
LeftToes  1.06246e-005 4.65855e-005 -8.18505e-006
313
root  41.6327 37.4248 -3.81288 173.755 53.8299 174.242
RightUpLeg  -21.9352 -16.1541 -9.00256
RightLeg  70.1391 -1.55326 -5.58944
RightFoot  5.73947 -1.0793 7.41197
RightToes  0.00048216 0.542163 -0.142577
Spine  30.3272 0.0327151 -2.28776
Spine1  14.8354 2.29974 -8.65217
HEad  3.62084 8.00496 -12.9661
LeftShoulder1  8.23361 -14.3866 -39.7846
LeftArm  -13.7821 7.07738 -24.2887
LeftForeArm  24.0462 -17.9527 -3.64879
LeftHand  -0.25398 0.0180481 5.50724
RightShoulder  6.09377 11.555 34.5076
RightArm  -5.92873 26.7602 23.9027
RightForeArm  -1.39961 31.0602 6.88408
RightHand  -1.07187 2.42529 -16.0869
LeftUpLeg  -26.0594 19.6859 -15.4943
LeftLeg  28.524 9.79985 6.06855
LeftFoot  -6.35614 -0.516925 12.6966
LeftToes  1.06246e-005 4.65855e-005 -8.18505e-006
314
root  42.8346 37.6442 -3.93491 175.326 49.4588 175.432
RightUpLeg  -27.2516 -16.2147 -8.24531
RightLeg  64.2906 -3.22815 -7.7987
RightFoot  3.9017 -0.780864 6.00192
RightToes  0.00048216 0.542163 -0.142577
Spine  33.7748 -0.456319 -1.16216
Spine1  14.8175 1.80592 -8.06167
HEad  2.5948 4.93925 -12.1182
LeftShoulder1  8.5896 -15.2601 -39.5493
LeftArm  -12.86 2.56317 -23.8133
LeftForeArm  24.6238 -20.358 -3.57807
LeftHand  -0.25398 0.0180481 5.50724
RightShoulder  6.10145 11.6769 34.2355
RightArm  -4.25145 28.6978 24.636
RightForeArm  -2.74615 27.4589 6.06217
RightHand  -1.02979 2.33805 -15.6327
LeftUpLeg  -24.6111 17.4819 -13.9732
LeftLeg  29.0048 7.81801 5.01357
LeftFoot  -6.94958 -0.402345 11.5556
LeftToes  1.06246e-005 4.65855e-005 -8.18505e-006
315
root  44.087 37.786 -4.01271 176.776 44.8806 176.226
RightUpLeg  -30.5886 -15.9831 -8.37787
RightLeg  54.7346 -5.65268 -8.96952
RightFoot  1.74165 -0.528048 4.73942
RightToes  0.00048216 0.542163 -0.142577
Spine  36.9492 -0.917387 0.003912
Spine1  14.6754 1.36068 -7.28361
HEad  1.64744 1.37072 -11.1561
LeftShoulder1  8.93298 -16.2173 -39.0868
LeftArm  -12.31 -2.26065 -23.6762
LeftForeArm  24.4675 -22.6397 -3.65704
LeftHand  -0.25398 0.0180481 5.50724
RightShoulder  6.01165 11.6213 33.794
RightArm  -3.27162 30.6294 24.6176
RightForeArm  -3.84428 24.6215 5.46767
RightHand  -0.945978 2.07766 -14.869
LeftUpLeg  -23.968 14.7648 -12.4566
LeftLeg  30.1299 6.02851 4.11739
LeftFoot  -7.58745 -0.302844 10.6039
LeftToes  1.06246e-005 4.65855e-005 -8.18505e-006
316
root  45.4889 37.7819 -4.04488 177.76 39.8148 175.917
RightUpLeg  -31.9631 -15.6391 -10.2453
RightLeg  42.0956 -6.44309 -6.58782
RightFoot  0.991061 -0.608308 5.67145
RightToes  0.00048216 0.542163 -0.142577
Spine  39.6748 -1.16149 0.00474603
Spine1  14.5063 0.6711 -5.9828
HEad  0.304265 -2.46136 -9.6907
LeftShoulder1  9.11594 -16.9702 -38.3401
LeftArm  -12.2286 -7.59557 -23.9228
LeftForeArm  23.4828 -24.2361 -3.93809
LeftHand  -0.25398 0.0180481 5.50724
RightShoulder  5.89202 11.6364 32.9691
RightArm  -3.12416 32.6211 24.0382
RightForeArm  -4.14483 22.301 5.17703
RightHand  -0.904404 2.07957 -14.2316
LeftUpLeg  -24.1654 10.745 -11.3654
LeftLeg  32.1631 4.8164 3.61545
LeftFoot  -8.60547 -0.167348 9.11056
LeftToes  1.06246e-005 4.65855e-005 -8.18505e-006
317
root  47.0272 37.6982 -4.07593 178.671 34.6155 175.19
RightUpLeg  -32.0824 -14.7779 -13.138
RightLeg  28.7666 -4.35321 -2.82577
RightFoot  1.50863 -0.726372 6.53502
RightToes  0.00048216 0.542163 -0.142577
Spine  42.2288 -1.30953 -0.440363
Spine1  14.2613 -0.0956576 -4.5601
HEad  -1.78285 -5.97606 -7.34352
LeftShoulder1  9.11908 -17.2931 -37.6861
LeftArm  -12.2772 -13.9503 -24.0849
LeftForeArm  21.4204 -24.5108 -4.10972
LeftHand  -0.25398 0.0180481 5.50724
RightShoulder  5.77152 11.8058 31.749
RightArm  -4.35043 34.4847 23.1213
RightForeArm  -3.6005 20.2495 5.45541
RightHand  -0.943257 2.46384 -14.1346
LeftUpLeg  -24.6123 5.97897 -10.288
LeftLeg  34.2832 4.02983 3.31867
LeftFoot  -9.89939 -0.0291843 7.04216
LeftToes  1.06246e-005 4.65855e-005 -8.18505e-006
